<mxfile host="app.diagrams.net" modified="2023-11-27T16:54:55.337Z" agent="Mozilla/5.0 (Macintosh; Intel Mac OS X 10_15_7) AppleWebKit/537.36 (KHTML, like Gecko) Chrome/110.0.0.0 Safari/537.36" version="22.1.4" etag="_mzTSjRlRjwzWqKeH4lF" type="github">
  <diagram name="Page-1" id="hIa3yMQj6nJZwlmKtMEr">
    <mxGraphModel>
      <root>
        <mxCell id="0" />
        <mxCell id="1" parent="0" />
      </root>
    </mxGraphModel>
  </diagram>
</mxfile>
